<svg xmlns="http://www.w3.org/2000/svg" viewBox="0 0 100 100" width="100" height="100">
  <!-- Main hexagonal container (K8s style) -->
  <polygon points="50,8 80,26 80,62 50,80 20,62 20,26" 
           fill="#326CE5" 
           stroke="#ffffff" 
           stroke-width="2"/>
  
  <!-- Inner accent lines -->
  <polygon points="50,15 72,29 72,57 50,71 28,57 28,29" 
           fill="none" 
           stroke="#ffffff" 
           stroke-width="1" 
           opacity="0.2"/>
  
  <!-- Event messages being sent (inside hexagon) -->
  <g fill="#ffffff" opacity="0.9">
    <rect x="30" y="20" width="8" height="4" rx="1" fill="none" stroke="#ffffff" stroke-width="1"/>
    <rect x="46" y="18" width="8" height="4" rx="1" fill="none" stroke="#ffffff" stroke-width="1"/>
    <rect x="62" y="20" width="8" height="4" rx="1" fill="none" stroke="#ffffff" stroke-width="1"/>
  </g>
  
  <!-- Event flow lines to controller -->
  <g stroke="#ffffff" stroke-width="1.5" opacity="0.8">
    <line x1="34" y1="24" x2="44" y2="32"/>
    <line x1="50" y1="22" x2="50" y2="32"/>
    <line x1="66" y1="24" x2="56" y2="32"/>
  </g>
  
  <!-- Standard Kubernetes Pod icon -->
  <g fill="#ffffff">
    <!-- Pod container -->
    <rect x="40" y="32" width="20" height="16" rx="3" 
          fill="#ffffff" 
          stroke="#326CE5" 
          stroke-width="1.5"/>
    
    <!-- Container circles (standard pod representation) -->
    <circle cx="45" cy="40" r="3" fill="#326CE5"/>
    <circle cx="55" cy="40" r="3" fill="#326CE5"/>
    
    <!-- Pod status indicator -->
    <circle cx="50" cy="34" r="1.5" fill="#10b981"/>
  </g>
  
  <!-- Output flow to logs -->
  <line x1="50" y1="48" x2="50" y2="58" stroke="#ffffff" stroke-width="2" opacity="0.8"/>
  
  <!-- Terminal/log output -->
  <rect x="28" y="58" width="44" height="16" rx="2" 
        fill="#0d1117" 
        stroke="#ffffff" 
        stroke-width="1"/>
  
  <!-- Terminal header -->
  <rect x="28" y="58" width="44" height="4" rx="2" 
        fill="#21262d"/>
  <circle cx="32" cy="60" r="0.8" fill="#ff6b6b"/>
  <circle cx="36" cy="60" r="0.8" fill="#ffd93d"/>
  <circle cx="40" cy="60" r="0.8" fill="#6bcf7f"/>
  
  <!-- Log entries -->
  <g>
    <rect x="30" y="64" width="18" height="1" fill="#58a6ff"/>
    <rect x="30" y="66.5" width="28" height="1" fill="#7c3aed"/>
    <rect x="30" y="69" width="14" height="1" fill="#f97316"/>
    <rect x="30" y="71.5" width="24" height="1" fill="#22c55e"/>
  </g>
  
  <!-- Active cursor -->
  <rect x="30" y="74" width="1" height="1.5" fill="#58a6ff">
    <animate attributeName="opacity" values="1;0;1" dur="1s" repeatCount="indefinite"/>
  </rect>
</svg>
